<?xml version="1.0" encoding="UTF-8" standalone="no" ?>
<!DOCTYPE svg PUBLIC "-//W3C//DTD SVG 1.1//EN" "http://www.w3.org/Graphics/SVG/1.1/DTD/svg11.dtd">
<svg xmlns="http://www.w3.org/2000/svg" xmlns:xlink="http://www.w3.org/1999/xlink" version="1.1" width="820" height="312" viewBox="0 0 820 312" xml:space="preserve">
<desc>Created with Fabric.js 4.6.0</desc>
<defs>
</defs>
<g transform="matrix(2.45 0 0 0.93 409.52 155.33)" id="xH9yvb1JoVnpHFPLZgXqS"  >
<path style="stroke: rgb(99,45,74); stroke-width: 0; stroke-dasharray: none; stroke-linecap: butt; stroke-dashoffset: 0; stroke-linejoin: miter; stroke-miterlimit: 4; fill: rgb(193,193,193); fill-rule: nonzero; opacity: 1;" vector-effect="non-scaling-stroke"  transform=" translate(0, 0)" d="M -166.66667 -166.66667 L 166.66667 -166.66667 L 166.66667 166.66667 L -166.66667 166.66667 z" stroke-linecap="round" />
</g>
<g transform="matrix(2.27 0 0 0.77 407.11 155.37)" id="xYvnd-MJTzEslf-6vJQ88"  >
<path style="stroke: rgb(99,45,74); stroke-width: 0; stroke-dasharray: none; stroke-linecap: butt; stroke-dashoffset: 0; stroke-linejoin: miter; stroke-miterlimit: 4; fill: rgb(68,68,68); fill-rule: nonzero; opacity: 1;" vector-effect="non-scaling-stroke"  transform=" translate(0, 0)" d="M -166.66667 -166.66667 L 166.66667 -166.66667 L 166.66667 166.66667 L -166.66667 166.66667 z" stroke-linecap="round" />
</g>
<g transform="matrix(1.38 0 0 0.37 258.04 155.33)" id="Ou-xwise5FmAU0FWjt6YR"  >
<path style="stroke: rgb(99,45,74); stroke-width: 0; stroke-dasharray: none; stroke-linecap: butt; stroke-dashoffset: 0; stroke-linejoin: miter; stroke-miterlimit: 4; fill: rgb(193,193,193); fill-rule: nonzero; opacity: 1;" vector-effect="non-scaling-stroke"  transform=" translate(0, 0)" d="M -166.66667 -166.66667 L 166.66667 -166.66667 L 166.66667 166.66667 L -166.66667 166.66667 z" stroke-linecap="round" />
</g>
<g transform="matrix(2.21 0 0 2.14 237.76 155.37)" style="" id="LFM3k80pgCUP3GP3wPogq"  >
		<text xml:space="preserve" font-family="Odibee Sans" font-size="32" font-style="normal" font-weight="normal" line-height="1.16" style="stroke: none; stroke-width: 1; stroke-dasharray: none; stroke-linecap: butt; stroke-dashoffset: 0; stroke-linejoin: miter; stroke-miterlimit: 4; fill: rgb(189,63,63); fill-rule: nonzero; opacity: 1; white-space: pre;" ><tspan x="-94.23" y="10.05" >Cat -n -phone</tspan></text>
</g>
<g transform="matrix(2.21 0 0 2.14 638.4 154.73)" id="D8Mv404fHXeve117-z2CF"  >
<path style="stroke: rgb(161,230,0); stroke-width: 0; stroke-dasharray: none; stroke-linecap: butt; stroke-dashoffset: 0; stroke-linejoin: miter; stroke-miterlimit: 4; fill: rgb(0,0,0); fill-rule: nonzero; opacity: 1;" vector-effect="non-scaling-stroke"  transform=" translate(0, 0)" d="M 0 -28.59477 C 15.78431 -28.59477 28.59477 -15.78431 28.59477 0 C 28.59477 15.78431 15.78431 28.59477 0 28.59477 C -15.78431 28.59477 -28.59477 15.78431 -28.59477 0 C -28.59477 -15.78431 -15.78431 -28.59477 0 -28.59477 z" stroke-linecap="round" />
</g>
<g transform="matrix(2.21 0 0 2.14 635.99 121.14)" id="5obJKTyXUmwTcNfY5YTLZ"  >
<path style="stroke: rgb(0,0,0); stroke-width: 1; stroke-dasharray: none; stroke-linecap: butt; stroke-dashoffset: 0; stroke-linejoin: miter; stroke-miterlimit: 4; fill: rgb(255,255,255); fill-opacity: 0; fill-rule: nonzero; opacity: 1;" vector-effect="non-scaling-stroke"  transform=" translate(0, 0)" d="M -14.97821 -2.5824 C -25.326790000000003 -22.19024 -27.505450000000003 -22.05883 -27.505450000000003 -22.05883 L -24.237470000000002 24.782130000000002 L 14.97822 -2.5823999999999963 L 24.237479999999998 -24.782139999999995 L 27.505449999999996 15.694540000000007 C 27.505449999999996 15.694540000000007 7.352939999999997 17.15686000000001 -6.808280000000003 18.246180000000006" stroke-linecap="round" />
</g>
</svg>